<?xml version="1.0" standalone="no"?>
<!DOCTYPE svg PUBLIC "-//W3C//DTD SVG 20010904//EN"
 "http://www.w3.org/TR/2001/REC-SVG-20010904/DTD/svg10.dtd">
<svg version="1.0" xmlns="http://www.w3.org/2000/svg"
 width="1280.000000pt" height="955.000000pt" viewBox="0 0 1280.000000 955.000000"
 preserveAspectRatio="xMidYMid meet">
<g transform="translate(0.000000,955.000000) scale(0.100000,-0.100000)"
fill="#000000" stroke="none">
<path d="M1146 8414 c-1037 -1040 -1128 -1134 -1115 -1151 8 -9 714 -814 1569
-1788 856 -973 2277 -2591 3159 -3595 882 -1004 1612 -1834 1622 -1845 19 -20
20 -19 73 40 29 33 563 640 1186 1350 940 1069 3873 4406 4877 5549 145 164
263 302 263 306 0 5 -435 435 -967 956 -533 521 -1051 1030 -1154 1131 l-185
183 -4100 -2 -4099 -1 -1129 -1133z m2683 447 c17 -11 16 -12 -124 -76 -137
-63 -298 -156 -433 -248 -555 -380 -927 -878 -1092 -1463 -59 -207 -82 -373
-87 -637 -5 -190 -8 -237 -19 -235 -13 3 -954 1067 -954 1079 0 7 1379 1472
1455 1547 l44 42 598 0 c329 0 604 -4 612 -9z m5549 -3 c18 -18 15 -223 -4
-316 -41 -201 -138 -335 -301 -416 -74 -37 -87 -35 -126 27 -74 114 -261 341
-469 570 -106 116 -115 127 -101 140 3 4 227 7 498 7 368 0 494 -3 503 -12z
m-2800 -52 c608 -86 1083 -303 1418 -647 239 -247 381 -528 440 -869 9 -52 18
-98 21 -102 2 -5 420 -8 929 -8 l924 0 2 823 c2 624 6 822 15 822 15 0 1392
-1526 1393 -1543 0 -15 -1547 -1776 -1565 -1780 -7 -2 -37 42 -70 104 -100
185 -189 310 -309 429 -345 344 -884 545 -1696 634 -151 16 -206 18 -395 11
-302 -12 -1451 -12 -1720 0 -785 35 -1246 108 -1443 227 -258 157 -498 380
-611 567 -85 141 -112 303 -73 433 69 226 318 429 732 596 371 151 830 270
1175 306 55 6 116 13 135 15 87 10 590 -3 698 -18z m-3660 -3450 c371 -128
979 -223 1712 -266 96 -5 535 -21 975 -35 1383 -43 1854 -72 2335 -141 470
-67 764 -168 907 -309 50 -50 65 -72 78 -119 95 -328 -518 -660 -1430 -775
-290 -36 -452 -45 -842 -46 l-381 0 -144 140 c-477 467 -986 675 -1429 585
-221 -45 -403 -146 -586 -323 -49 -48 -88 -77 -96 -74 -14 5 -1219 1370 -1225
1387 -6 17 26 11 126 -24z m5200 -2170 c-3 -14 -1649 -1888 -1682 -1915 -15
-13 -20 -12 -40 10 -109 112 -1586 1804 -1586 1816 0 13 9 14 48 9 79 -10 513
-45 757 -60 791 -51 1537 -46 1977 14 177 24 409 85 478 125 32 18 52 19 48 1z"/>
</g>
</svg>
